<svg width="604.0349609374999px" height="122.021240234375px" xmlns="http://www.w3.org/2000/svg" viewBox="-52.017480468749966 13.9893798828125 604.0349609374999 122.021240234375" style="background: rgb(224, 252, 255);" preserveAspectRatio="xMidYMid"><defs><filter id="editing-vintage" x="-100%" y="-100%" width="300%" height="300%"><feConvolveMatrix in="SourceGraphic" result="extrude" order="9,9" divisor="1" kernelMatrix="1,0,0,0,0,0,0,0,0,0,1,0,0,0,0,0,0,0,0,0,1,0,0,0,0,0,0,0,0,0,1,0,0,0,0,0,0,0,0,0,1,0,0,0,0,0,0,0,0,0,1,0,0,0,0,0,0,0,0,0,1,0,0,0,0,0,0,0,0,0,1,0,0,0,0,0,0,0,0,0,1"> </feConvolveMatrix><feFlood flood-color="#900" result="flood-extrude"></feFlood><feComposite operator="in" in="flood-extrude" in2="extrude" result="extrude-color"></feComposite><feOffset dx="5" dy="5" in="extrude-color" result="extrude-offset"></feOffset><feColorMatrix in="SourceGraphic" result="stroke" type="matrix" values="0 0 0 0 0 0 0 0 0 0 0 0 0 0 0 0 1 0 0 0 "></feColorMatrix><feColorMatrix in="SourceGraphic" result="fill" type="matrix" values="0 0 0 0 0 0 0 0 0 0 0 0 0 0 0 1 0 0 1 0 "></feColorMatrix><feConvolveMatrix in="stroke" result="inner-shadow" order="5,5" divisor="1" kernelMatrix="1 0 0 0 0 0 1 0 0 0 0 0 1 0 0 0 0 0 1 0 0 0 0 0 1 "></feConvolveMatrix><feOffset dx="1" dy="1" in="inner-shadow" result="offset"></feOffset><feComposite operator="in" in="offset" in2="SourceAlpha" result="comp"></feComposite><feFlood flood-color="#000" result="flood3"></feFlood><feComposite operator="in" in="flood3" in2="comp" result="comp2"></feComposite><feColorMatrix in="comp2" result="comp3" type="matrix" values="1 0 0 0 0 0 1 0 0 0 0 0 1 0 0 0 0 0 0.5 0 "></feColorMatrix><feFlood flood-color="#f00" result="flood1"></feFlood><feComposite operator="in" in="flood1" in2="fill" result="fill2"></feComposite><feFlood flood-color="#fff" result="flood2"></feFlood><feComposite operator="in" in="flood2" in2="stroke" result="stroke2"></feComposite><feMerge result="obj"><feMergeNode in="extrude-offset"></feMergeNode><feMergeNode in="fill2"></feMergeNode><feMergeNode in="comp3"></feMergeNode></feMerge><feConvolveMatrix in="SourceAlpha" result="shadow" order="9,9" divisor="1" kernelMatrix="1,0,0,0,0,0,0,0,0,0,1,0,0,0,0,0,0,0,0,0,1,0,0,0,0,0,0,0,0,0,1,0,0,0,0,0,0,0,0,0,1,0,0,0,0,0,0,0,0,0,1,0,0,0,0,0,0,0,0,0,1,0,0,0,0,0,0,0,0,0,1,0,0,0,0,0,0,0,0,0,1"></feConvolveMatrix><feOffset dx="15" dy="15" in="shadow" result="shadow-offset"></feOffset><feFlood flood-color="#444444" result="flood-shadow"></feFlood><feComposite operator="in" in="flood-shadow" in2="shadow-offset" result="shadow-color"></feComposite><feMerge><feMergeNode in="shadow-color"></feMergeNode><feMergeNode in="obj"></feMergeNode></feMerge></filter></defs><g transform="translate(-9,-9)"><g filter="url(#editing-vintage)"><g transform="translate(36.21000123023987, 98.9921875)"><path d="M14.21 0L0.51 0L8.32-42.05L8.32-42.05Q14.66-42.75 23.90-42.75L23.90-42.75L23.90-42.75Q33.15-42.75 37.44-40.06L37.44-40.06L37.44-40.06Q41.73-37.38 41.73-31.97L41.73-31.97L41.73-31.97Q41.73-26.56 38.94-23.17L38.94-23.17L38.94-23.17Q36.16-19.78 31.36-18.69L31.36-18.69L31.36-18.69Q32.45-13.38 34.94-9.09L34.94-9.09L34.94-9.09Q37.25-5.06 39.94-3.78L39.94-3.78L39.94-3.78Q38.98-1.09 37.02 0.10L37.02 0.10L37.02 0.10Q35.07 1.28 32.29 1.28L32.29 1.28L32.29 1.28Q29.50 1.28 27.33-0.35L27.33-0.35L27.33-0.35Q25.15-1.98 23.42-4.99L23.42-4.99L23.42-4.99Q19.78-11.52 19.39-21.82L19.39-21.82L19.84-21.82L19.84-21.82Q24.58-21.95 26.94-24.42L26.94-24.42L26.94-24.42Q29.31-26.88 29.31-32.06L29.31-32.06L29.31-32.06Q29.31-38.53 23.87-38.78L23.87-38.78L22.46-38.78L22.46-38.78Q21.89-38.78 21.57-38.72L21.57-38.72L14.21 0ZM58.62 1.28L58.62 1.28L58.62 1.28Q44.54 1.28 44.54-11.97L44.54-11.97L44.54-11.97Q44.54-21.38 49.73-27.46L49.73-27.46L49.73-27.46Q55.23-33.92 64.77-33.92L64.77-33.92L64.77-33.92Q71.68-33.92 75.20-30.72L75.20-30.72L75.20-30.72Q78.72-27.52 78.72-20.80L78.72-20.80L78.72-20.80Q78.72-10.56 73.22-4.61L73.22-4.61L73.22-4.61Q67.84 1.28 58.62 1.28ZM60.29-26.56L60.29-26.56L60.29-26.56Q59.52-24.83 58.91-22.24L58.91-22.24L58.91-22.24Q58.30-19.65 57.54-15.55L57.54-15.55L57.54-15.55Q56.77-11.46 56.77-6.40L56.77-6.40L56.77-6.40Q56.77-4.74 57.31-3.65L57.31-3.65L57.31-3.65Q57.86-2.56 59.33-2.56L59.33-2.56L59.33-2.56Q60.80-2.56 61.73-3.26L61.73-3.26L61.73-3.26Q62.66-3.97 63.36-5.63L63.36-5.63L63.36-5.63Q64.64-8.58 65.66-14.05L65.66-14.05L65.66-14.05Q66.69-19.52 66.78-21.89L66.78-21.89L66.78-21.89Q66.88-24.26 66.88-26.02L66.88-26.02L66.88-26.02Q66.88-27.78 66.37-28.93L66.37-28.93L66.37-28.93Q65.86-30.08 64.42-30.08L64.42-30.08L64.42-30.08Q62.98-30.08 62.02-29.18L62.02-29.18L62.02-29.18Q61.06-28.29 60.29-26.56ZM114.69-7.10L114.69-7.10L114.69-7.10Q114.69-4.29 117.57-3.46L117.57-3.46L117.57-3.46Q116.86-1.09 114.11 0.19L114.11 0.19L114.11 0.19Q111.81 1.28 109.28 1.28L109.28 1.28L109.28 1.28Q106.75 1.28 105.44 0.61L105.44 0.61L105.44 0.61Q104.13-0.06 103.42-1.15L103.42-1.15L103.42-1.15Q102.27-2.82 102.27-5.95L102.27-5.95L102.27-5.95Q102.27-7.81 103.30-12.93L103.30-12.93L104.19-17.79L104.19-17.79Q105.28-23.36 105.28-25.41L105.28-25.41L105.28-25.41Q105.28-28.99 103.30-28.99L103.30-28.99L103.30-28.99Q100.80-28.99 99.20-25.34L99.20-25.34L99.20-25.34Q98.56-23.94 98.11-21.82L98.11-21.82L93.76 0L80.90 1.28L89.92-44.80L102.78-46.08L102.27-43.52L102.27-43.52Q100.48-33.66 98.94-30.34L98.94-30.34L98.94-30.34Q102.53-33.92 109.12-33.92L109.12-33.92L109.12-33.92Q116.10-33.92 117.38-29.31L117.38-29.31L117.38-29.31Q117.82-27.84 117.82-26.56L117.82-26.56L117.82-26.56Q117.82-25.28 117.73-24.29L117.73-24.29L117.73-24.29Q117.63-23.30 117.31-21.50L117.31-21.50L116.48-16.90L115.01-9.66L115.01-9.66Q114.69-8.19 114.69-7.10ZM138.11-3.52L138.11-3.52L138.11-3.52Q136.13 1.28 129.79 1.28L129.79 1.28L129.79 1.28Q126.53 1.28 124.48-0.96L124.48-0.96L124.48-0.96Q122.75-2.94 122.75-4.93L122.75-4.93L122.75-4.93Q122.75-10.11 125.12-20.22L125.12-20.22L127.49-32.64L140.48-33.92L136.58-13.70L136.58-13.70Q135.49-8.96 135.49-7.30L135.49-7.30L135.49-7.30Q135.49-3.65 138.11-3.52ZM128.64-41.54L128.64-41.54L128.64-41.54Q128.64-44.03 130.72-45.38L130.72-45.38L130.72-45.38Q132.80-46.72 135.81-46.72L135.81-46.72L135.81-46.72Q138.82-46.72 140.64-45.38L140.64-45.38L140.64-45.38Q142.46-44.03 142.46-41.54L142.46-41.54L142.46-41.54Q142.46-39.04 140.45-37.76L140.45-37.76L140.45-37.76Q138.43-36.48 135.42-36.48L135.42-36.48L135.42-36.48Q132.42-36.48 130.53-37.76L130.53-37.76L130.53-37.76Q128.64-39.04 128.64-41.54ZM144.58-6.40L144.58-6.40L144.58-6.40Q144.58-8.13 145.47-12.48L145.47-12.48L148.86-29.76L145.09-29.76L145.34-31.68L145.34-31.68Q153.02-33.98 160.45-39.62L160.45-39.62L163.52-39.62L161.98-32.64L166.98-32.64L166.40-29.76L161.47-29.76L158.21-12.48L158.21-12.48Q157.38-8.51 157.38-7.17L157.38-7.17L157.38-7.17Q157.38-4.10 160.06-3.46L160.06-3.46L160.06-3.46Q159.42-1.28 157.12 0L157.12 0L157.12 0Q154.82 1.28 151.55 1.28L151.55 1.28L151.55 1.28Q148.29 1.28 146.43-0.77L146.43-0.77L146.43-0.77Q144.58-2.82 144.58-6.40ZM204.80-29.57L204.80-29.57L204.80-29.57Q205.76-31.49 205.76-33.28L205.76-33.28L205.76-33.28Q205.76-35.07 205.57-36.06L205.57-36.06L205.57-36.06Q205.38-37.06 204.93-37.82L204.93-37.82L204.93-37.82Q203.97-39.49 202.05-39.49L202.05-39.49L202.05-39.49Q199.68-39.49 197.76-37.76L197.76-37.76L197.76-37.76Q195.71-35.97 195.71-33.15L195.71-33.15L195.71-33.15Q195.71-31.36 196.96-29.98L196.96-29.98L196.96-29.98Q198.21-28.61 200.13-27.33L200.13-27.33L200.13-27.33Q202.05-26.05 204.22-24.77L204.22-24.77L204.22-24.77Q206.40-23.49 208.32-21.95L208.32-21.95L208.32-21.95Q212.74-18.43 212.74-13.70L212.74-13.70L212.74-13.70Q212.74-10.50 211.04-7.78L211.04-7.78L211.04-7.78Q209.34-5.06 206.53-3.07L206.53-3.07L206.53-3.07Q200.38 1.28 192.26 1.28L192.26 1.28L192.26 1.28Q185.66 1.28 182.27-0.86L182.27-0.86L182.27-0.86Q178.88-3.01 178.88-6.27L178.88-6.27L178.88-6.27Q178.88-12.10 183.42-13.57L183.42-13.57L183.42-13.57Q184.70-14.02 186.66-14.02L186.66-14.02L186.66-14.02Q188.61-14.02 190.85-13.18L190.85-13.18L190.85-13.18Q189.82-10.56 189.82-8.19L189.82-8.19L189.82-8.19Q189.82-3.07 193.47-3.07L193.47-3.07L193.47-3.07Q195.84-3.07 197.79-4.80L197.79-4.80L197.79-4.80Q199.74-6.53 199.74-8.48L199.74-8.48L199.74-8.48Q199.74-10.43 198.50-11.84L198.50-11.84L198.50-11.84Q197.25-13.25 195.39-14.37L195.39-14.37L195.39-14.37Q193.54-15.49 191.39-16.58L191.39-16.58L191.39-16.58Q189.25-17.66 187.39-19.20L187.39-19.20L187.39-19.20Q183.04-22.72 183.04-28.35L183.04-28.35L183.04-28.35Q183.04-32 184.83-34.85L184.83-34.85L184.83-34.85Q186.62-37.70 189.50-39.62L189.50-39.62L189.50-39.62Q195.26-43.52 202.34-43.52L202.34-43.52L202.34-43.52Q209.41-43.52 212.83-41.41L212.83-41.41L212.83-41.41Q216.26-39.30 216.26-35.71L216.26-35.71L216.26-35.71Q216.26-32.58 213.82-30.59L213.82-30.59L213.82-30.59Q211.71-28.93 209.15-28.93L209.15-28.93L209.15-28.93Q206.59-28.93 204.80-29.57ZM249.79-7.10L249.79-7.10L249.79-7.10Q249.79-4.29 252.67-3.46L252.67-3.46L252.67-3.46Q251.97-1.09 249.22 0.19L249.22 0.19L249.22 0.19Q246.91 1.28 244.38 1.28L244.38 1.28L244.38 1.28Q241.86 1.28 240.54 0.61L240.54 0.61L240.54 0.61Q239.23-0.06 238.53-1.15L238.53-1.15L238.53-1.15Q237.38-2.82 237.38-5.95L237.38-5.95L237.38-5.95Q237.38-7.81 238.40-12.93L238.40-12.93L239.30-17.79L239.30-17.79Q240.38-23.36 240.38-25.41L240.38-25.41L240.38-25.41Q240.38-28.99 238.40-28.99L238.40-28.99L238.40-28.99Q235.90-28.99 234.30-25.34L234.30-25.34L234.30-25.34Q233.66-23.94 233.22-21.82L233.22-21.82L228.86 0L216.00 1.28L225.02-44.80L237.89-46.08L237.38-43.52L237.38-43.52Q235.58-33.66 234.05-30.34L234.05-30.34L234.05-30.34Q237.63-33.92 244.22-33.92L244.22-33.92L244.22-33.92Q251.20-33.92 252.48-29.31L252.48-29.31L252.48-29.31Q252.93-27.84 252.93-26.56L252.93-26.56L252.93-26.56Q252.93-25.28 252.83-24.29L252.83-24.29L252.83-24.29Q252.74-23.30 252.42-21.50L252.42-21.50L251.58-16.90L250.11-9.66L250.11-9.66Q249.79-8.19 249.79-7.10ZM260.64-1.92L260.64-1.92L260.64-1.92Q259.14-3.58 258.46-6.21L258.46-6.21L258.46-6.21Q257.79-8.83 257.79-13.12L257.79-13.12L257.79-13.12Q257.79-17.41 259.26-21.31L259.26-21.31L259.26-21.31Q260.74-25.22 263.42-28.03L263.42-28.03L263.42-28.03Q268.93-33.92 278.02-33.92L278.02-33.92L278.02-33.92Q281.28-33.92 283.65-32.83L283.65-32.83L294.59-33.92L289.86-8.96L289.86-8.96Q289.66-8.19 289.66-6.78L289.66-6.78L289.66-6.78Q289.66-5.38 290.53-4.48L290.53-4.48L290.53-4.48Q291.39-3.58 292.67-3.46L292.67-3.46L292.67-3.46Q292.03-1.28 289.70 0L289.70 0L289.70 0Q287.36 1.28 284.74 1.28L284.74 1.28L284.74 1.28Q282.11 1.28 280.35 0.29L280.35 0.29L280.35 0.29Q278.59-0.70 278.08-2.37L278.08-2.37L278.08-2.37Q277.06-0.77 274.88 0.26L274.88 0.26L274.88 0.26Q272.70 1.28 269.79 1.28L269.79 1.28L269.79 1.28Q266.88 1.28 264.51 0.51L264.51 0.51L264.51 0.51Q262.14-0.26 260.64-1.92ZM274.14-27.90L274.14-27.90L274.14-27.90Q273.41-26.75 272.77-24.80L272.77-24.80L272.77-24.80Q272.13-22.85 271.07-17.63L271.07-17.63L271.07-17.63Q270.02-12.42 270.02-8.70L270.02-8.70L270.02-8.70Q270.02-4.99 270.59-3.90L270.59-3.90L270.59-3.90Q271.17-2.82 272.19-2.82L272.19-2.82L272.19-2.82Q274.24-2.82 275.74-4.77L275.74-4.77L275.74-4.77Q277.25-6.72 277.82-10.18L277.82-10.18L281.22-28.93L281.22-28.93Q279.87-30.08 278.30-30.08L278.30-30.08L278.30-30.08Q276.74-30.08 275.81-29.57L275.81-29.57L275.81-29.57Q274.88-29.06 274.14-27.90ZM318.08-17.98L318.08-17.98L318.08-17.98Q320.38-22.08 320.38-26.24L320.38-26.24L320.38-26.24Q320.38-28.99 318.40-28.99L318.40-28.99L318.40-28.99Q316.86-28.99 315.26-26.37L315.26-26.37L315.26-26.37Q313.60-23.74 313.09-20.35L313.09-20.35L309.76 0L296.51 1.28L303.04-32.64L313.60-33.92L312.45-27.46L312.45-27.46Q315.58-33.92 322.62-33.92L322.62-33.92L322.62-33.92Q326.34-33.92 328.35-32L328.35-32L328.35-32Q330.37-30.08 330.37-26.14L330.37-26.14L330.37-26.14Q330.37-22.21 327.78-19.71L327.78-19.71L327.78-19.71Q325.18-17.22 320.77-17.22L320.77-17.22L320.77-17.22Q318.85-17.22 318.08-17.98ZM377.47 1.28L377.47 1.28L377.47 1.28Q369.73 1.28 369.73-4.74L369.73-4.74L369.73-4.74Q369.73-7.36 370.85-12.45L370.85-12.45L370.85-12.45Q371.97-17.54 372.35-19.58L372.35-19.58L372.35-19.58Q373.25-24.26 373.25-25.73L373.25-25.73L373.25-25.73Q373.25-28.99 370.82-28.99L370.82-28.99L370.82-28.99Q369.22-28.99 367.68-26.78L367.68-26.78L367.68-26.78Q366.14-24.58 365.44-20.16L365.44-20.16L361.47 0L348.99 1.28L352.45-16.13L352.45-16.13Q353.02-19.01 353.54-22.27L353.54-22.27L353.54-22.27Q354.05-25.54 354.05-26.05L354.05-26.05L354.05-26.05Q354.05-28.99 351.87-28.99L351.87-28.99L351.87-28.99Q350.40-28.99 348.80-26.82L348.80-26.82L348.80-26.82Q347.20-24.64 346.30-20.16L346.30-20.16L342.40 0L329.79 1.28L336.51-32.64L346.94-33.92L345.86-27.46L345.86-27.46Q347.52-30.91 350.59-32.42L350.59-32.42L350.59-32.42Q353.66-33.92 358.46-33.92L358.46-33.92L358.46-33.92Q361.22-33.92 363.01-32.58L363.01-32.58L363.01-32.58Q364.80-31.23 365.38-29.06L365.38-29.06L365.38-29.06Q366.46-31.30 369.25-32.61L369.25-32.61L369.25-32.61Q372.03-33.92 375.46-33.92L375.46-33.92L375.46-33.92Q378.88-33.92 380.58-33.18L380.58-33.18L380.58-33.18Q382.27-32.45 383.30-31.23L383.30-31.23L383.30-31.23Q385.02-28.99 385.02-24.90L385.02-24.90L385.02-24.90Q385.02-20.86 383.30-12.48L383.30-12.48L383.30-12.48Q382.40-8.38 382.40-6.88L382.40-6.88L382.40-6.88Q382.40-5.38 383.26-4.48L383.26-4.48L383.26-4.48Q384.13-3.58 385.41-3.46L385.41-3.46L385.41-3.46Q384.77-1.28 382.56 0L382.56 0L382.56 0Q380.35 1.28 377.47 1.28ZM393.12-1.92L393.12-1.92L393.12-1.92Q391.62-3.58 390.94-6.21L390.94-6.21L390.94-6.21Q390.27-8.83 390.27-13.12L390.27-13.12L390.27-13.12Q390.27-17.41 391.74-21.31L391.74-21.31L391.74-21.31Q393.22-25.22 395.90-28.03L395.90-28.03L395.90-28.03Q401.41-33.92 410.50-33.92L410.50-33.92L410.50-33.92Q413.76-33.92 416.13-32.83L416.13-32.83L427.07-33.92L422.34-8.96L422.34-8.96Q422.14-8.19 422.14-6.78L422.14-6.78L422.14-6.78Q422.14-5.38 423.01-4.48L423.01-4.48L423.01-4.48Q423.87-3.58 425.15-3.46L425.15-3.46L425.15-3.46Q424.51-1.28 422.18 0L422.18 0L422.18 0Q419.84 1.28 417.22 1.28L417.22 1.28L417.22 1.28Q414.59 1.28 412.83 0.29L412.83 0.29L412.83 0.29Q411.07-0.70 410.56-2.37L410.56-2.37L410.56-2.37Q409.54-0.77 407.36 0.26L407.36 0.26L407.36 0.26Q405.18 1.28 402.27 1.28L402.27 1.28L402.27 1.28Q399.36 1.28 396.99 0.51L396.99 0.51L396.99 0.51Q394.62-0.26 393.12-1.92ZM406.62-27.90L406.62-27.90L406.62-27.90Q405.89-26.75 405.25-24.80L405.25-24.80L405.25-24.80Q404.61-22.85 403.55-17.63L403.55-17.63L403.55-17.63Q402.50-12.42 402.50-8.70L402.50-8.70L402.50-8.70Q402.50-4.99 403.07-3.90L403.07-3.90L403.07-3.90Q403.65-2.82 404.67-2.82L404.67-2.82L404.67-2.82Q406.72-2.82 408.22-4.77L408.22-4.77L408.22-4.77Q409.73-6.72 410.30-10.18L410.30-10.18L413.70-28.93L413.70-28.93Q412.35-30.08 410.78-30.08L410.78-30.08L410.78-30.08Q409.22-30.08 408.29-29.57L408.29-29.57L408.29-29.57Q407.36-29.06 406.62-27.90Z" fill="#f00" stroke="#0f0" stroke-width="1.8"></path></g></g><g><g transform="translate(36.21000123023987, 99)"><path d="M14.21 0L0.51 0L8.32-42.05L8.32-42.05Q14.66-42.75 23.90-42.75L23.90-42.75L23.90-42.75Q33.15-42.75 37.44-40.06L37.44-40.06L37.44-40.06Q41.73-37.38 41.73-31.97L41.73-31.97L41.73-31.97Q41.73-26.56 38.94-23.17L38.94-23.17L38.94-23.17Q36.16-19.78 31.36-18.69L31.36-18.69L31.36-18.69Q32.45-13.38 34.94-9.09L34.94-9.09L34.94-9.09Q37.25-5.06 39.94-3.78L39.94-3.78L39.94-3.78Q38.98-1.09 37.02 0.10L37.02 0.10L37.02 0.10Q35.07 1.28 32.29 1.28L32.29 1.28L32.29 1.28Q29.50 1.28 27.33-0.35L27.33-0.35L27.33-0.35Q25.15-1.98 23.42-4.99L23.42-4.99L23.42-4.99Q19.78-11.52 19.39-21.82L19.39-21.82L19.84-21.82L19.84-21.82Q24.58-21.95 26.94-24.42L26.94-24.42L26.94-24.42Q29.31-26.88 29.31-32.06L29.31-32.06L29.31-32.06Q29.31-38.53 23.87-38.78L23.87-38.78L22.46-38.78L22.46-38.78Q21.89-38.78 21.57-38.72L21.57-38.72L14.21 0ZM58.62 1.28L58.62 1.28L58.62 1.28Q44.54 1.28 44.54-11.97L44.54-11.97L44.54-11.97Q44.54-21.38 49.73-27.46L49.73-27.46L49.73-27.46Q55.23-33.92 64.77-33.92L64.77-33.92L64.77-33.92Q71.68-33.92 75.20-30.72L75.20-30.72L75.20-30.72Q78.72-27.52 78.72-20.80L78.72-20.80L78.72-20.80Q78.72-10.56 73.22-4.61L73.22-4.61L73.22-4.61Q67.84 1.28 58.62 1.28ZM60.29-26.56L60.29-26.56L60.29-26.56Q59.52-24.83 58.91-22.24L58.91-22.24L58.91-22.24Q58.30-19.65 57.54-15.55L57.54-15.55L57.54-15.55Q56.77-11.46 56.77-6.40L56.77-6.40L56.77-6.40Q56.77-4.74 57.31-3.65L57.31-3.65L57.31-3.65Q57.86-2.56 59.33-2.56L59.33-2.56L59.33-2.56Q60.80-2.56 61.73-3.26L61.73-3.26L61.73-3.26Q62.66-3.97 63.36-5.63L63.36-5.63L63.36-5.63Q64.64-8.58 65.66-14.05L65.66-14.05L65.66-14.05Q66.69-19.52 66.78-21.89L66.78-21.89L66.78-21.89Q66.88-24.26 66.88-26.02L66.88-26.02L66.88-26.02Q66.88-27.78 66.37-28.93L66.37-28.93L66.37-28.93Q65.86-30.08 64.42-30.08L64.42-30.08L64.42-30.08Q62.98-30.08 62.02-29.18L62.02-29.18L62.02-29.18Q61.06-28.29 60.29-26.56ZM114.69-7.10L114.69-7.10L114.69-7.10Q114.69-4.29 117.57-3.46L117.57-3.46L117.57-3.46Q116.86-1.09 114.11 0.19L114.11 0.19L114.11 0.19Q111.81 1.28 109.28 1.28L109.28 1.28L109.28 1.28Q106.75 1.28 105.44 0.61L105.44 0.61L105.44 0.61Q104.13-0.06 103.42-1.15L103.42-1.15L103.42-1.15Q102.27-2.82 102.27-5.95L102.27-5.95L102.27-5.95Q102.27-7.81 103.30-12.93L103.30-12.93L104.19-17.79L104.19-17.79Q105.28-23.36 105.28-25.41L105.28-25.41L105.28-25.41Q105.28-28.99 103.30-28.99L103.30-28.99L103.30-28.99Q100.80-28.99 99.20-25.34L99.20-25.34L99.20-25.34Q98.56-23.94 98.11-21.82L98.11-21.82L93.76 0L80.90 1.28L89.92-44.80L102.78-46.08L102.27-43.52L102.27-43.52Q100.48-33.66 98.94-30.34L98.94-30.34L98.94-30.34Q102.53-33.92 109.12-33.92L109.12-33.92L109.12-33.92Q116.10-33.92 117.38-29.31L117.38-29.31L117.38-29.31Q117.82-27.84 117.82-26.56L117.82-26.56L117.82-26.56Q117.82-25.28 117.73-24.29L117.73-24.29L117.73-24.29Q117.63-23.30 117.31-21.50L117.31-21.50L116.48-16.90L115.01-9.66L115.01-9.66Q114.69-8.19 114.69-7.10ZM138.11-3.52L138.11-3.52L138.11-3.52Q136.13 1.28 129.79 1.28L129.79 1.28L129.79 1.28Q126.53 1.28 124.48-0.96L124.48-0.96L124.48-0.96Q122.75-2.94 122.75-4.93L122.75-4.93L122.75-4.93Q122.75-10.11 125.12-20.22L125.12-20.22L127.49-32.64L140.48-33.92L136.58-13.70L136.58-13.70Q135.49-8.96 135.49-7.30L135.49-7.30L135.49-7.30Q135.49-3.65 138.11-3.52ZM128.64-41.54L128.64-41.54L128.64-41.54Q128.64-44.03 130.72-45.38L130.72-45.38L130.72-45.38Q132.80-46.72 135.81-46.72L135.81-46.72L135.81-46.72Q138.82-46.72 140.64-45.38L140.64-45.38L140.64-45.38Q142.46-44.03 142.46-41.54L142.46-41.54L142.46-41.54Q142.46-39.04 140.45-37.76L140.45-37.76L140.45-37.76Q138.43-36.48 135.42-36.48L135.42-36.48L135.42-36.48Q132.42-36.48 130.53-37.76L130.53-37.76L130.53-37.76Q128.64-39.04 128.64-41.54ZM144.58-6.40L144.58-6.40L144.58-6.40Q144.58-8.13 145.47-12.48L145.47-12.48L148.86-29.76L145.09-29.76L145.34-31.68L145.34-31.68Q153.02-33.98 160.45-39.62L160.45-39.62L163.52-39.62L161.98-32.64L166.98-32.64L166.40-29.76L161.47-29.76L158.21-12.48L158.21-12.48Q157.38-8.51 157.38-7.17L157.38-7.17L157.38-7.17Q157.38-4.10 160.06-3.46L160.06-3.46L160.06-3.46Q159.42-1.28 157.12 0L157.12 0L157.12 0Q154.82 1.28 151.55 1.28L151.55 1.28L151.55 1.28Q148.29 1.28 146.43-0.77L146.43-0.77L146.43-0.77Q144.58-2.82 144.58-6.40ZM204.80-29.57L204.80-29.57L204.80-29.57Q205.76-31.49 205.76-33.28L205.76-33.28L205.76-33.28Q205.76-35.07 205.57-36.06L205.57-36.06L205.57-36.06Q205.38-37.06 204.93-37.82L204.93-37.82L204.93-37.82Q203.97-39.49 202.05-39.49L202.05-39.49L202.05-39.49Q199.68-39.49 197.76-37.76L197.76-37.76L197.76-37.76Q195.71-35.97 195.71-33.15L195.71-33.15L195.71-33.15Q195.71-31.36 196.96-29.98L196.96-29.98L196.96-29.98Q198.21-28.61 200.13-27.33L200.13-27.33L200.13-27.33Q202.05-26.05 204.22-24.77L204.22-24.77L204.22-24.77Q206.40-23.49 208.32-21.95L208.32-21.95L208.32-21.95Q212.74-18.43 212.74-13.70L212.74-13.70L212.74-13.70Q212.74-10.50 211.04-7.78L211.04-7.78L211.04-7.78Q209.34-5.06 206.53-3.07L206.53-3.07L206.53-3.07Q200.38 1.28 192.26 1.28L192.26 1.28L192.26 1.28Q185.66 1.28 182.27-0.86L182.27-0.86L182.27-0.86Q178.88-3.01 178.88-6.27L178.88-6.27L178.88-6.27Q178.88-12.10 183.42-13.57L183.42-13.57L183.42-13.57Q184.70-14.02 186.66-14.02L186.66-14.02L186.66-14.02Q188.61-14.02 190.85-13.18L190.85-13.18L190.85-13.18Q189.82-10.56 189.82-8.19L189.82-8.19L189.82-8.19Q189.82-3.07 193.47-3.07L193.47-3.07L193.47-3.07Q195.84-3.07 197.79-4.80L197.79-4.80L197.79-4.80Q199.74-6.53 199.74-8.48L199.74-8.48L199.74-8.48Q199.74-10.43 198.50-11.84L198.50-11.84L198.50-11.84Q197.25-13.25 195.39-14.37L195.39-14.37L195.39-14.37Q193.54-15.49 191.39-16.58L191.39-16.58L191.39-16.58Q189.25-17.66 187.39-19.20L187.39-19.20L187.39-19.20Q183.04-22.72 183.04-28.35L183.04-28.35L183.04-28.35Q183.04-32 184.83-34.85L184.83-34.85L184.83-34.85Q186.62-37.70 189.50-39.62L189.50-39.62L189.50-39.62Q195.26-43.52 202.34-43.52L202.34-43.52L202.34-43.52Q209.41-43.52 212.83-41.41L212.83-41.41L212.83-41.41Q216.26-39.30 216.26-35.71L216.26-35.71L216.26-35.71Q216.26-32.58 213.82-30.59L213.82-30.59L213.82-30.59Q211.71-28.93 209.15-28.93L209.15-28.93L209.15-28.93Q206.59-28.93 204.80-29.57ZM249.79-7.10L249.79-7.10L249.79-7.10Q249.79-4.29 252.67-3.46L252.67-3.46L252.67-3.46Q251.97-1.09 249.22 0.19L249.22 0.19L249.22 0.19Q246.91 1.28 244.38 1.28L244.38 1.28L244.38 1.28Q241.86 1.28 240.54 0.61L240.54 0.61L240.54 0.61Q239.23-0.06 238.53-1.15L238.53-1.15L238.53-1.15Q237.38-2.82 237.38-5.95L237.38-5.95L237.38-5.95Q237.38-7.81 238.40-12.93L238.40-12.93L239.30-17.79L239.30-17.79Q240.38-23.36 240.38-25.41L240.38-25.41L240.38-25.41Q240.38-28.99 238.40-28.99L238.40-28.99L238.40-28.99Q235.90-28.99 234.30-25.34L234.30-25.34L234.30-25.34Q233.66-23.94 233.22-21.82L233.22-21.82L228.86 0L216.00 1.28L225.02-44.80L237.89-46.08L237.38-43.52L237.38-43.52Q235.58-33.66 234.05-30.34L234.05-30.34L234.05-30.34Q237.63-33.92 244.22-33.92L244.22-33.92L244.22-33.92Q251.20-33.92 252.48-29.31L252.48-29.31L252.48-29.31Q252.93-27.84 252.93-26.56L252.93-26.56L252.93-26.56Q252.93-25.28 252.83-24.29L252.83-24.29L252.83-24.29Q252.74-23.30 252.42-21.50L252.42-21.50L251.58-16.90L250.11-9.66L250.11-9.66Q249.79-8.19 249.79-7.10ZM260.64-1.92L260.64-1.92L260.64-1.92Q259.14-3.58 258.46-6.21L258.46-6.21L258.46-6.21Q257.79-8.83 257.79-13.12L257.79-13.12L257.79-13.12Q257.79-17.41 259.26-21.31L259.26-21.31L259.26-21.31Q260.74-25.22 263.42-28.03L263.42-28.03L263.42-28.03Q268.93-33.92 278.02-33.92L278.02-33.92L278.02-33.92Q281.28-33.92 283.65-32.83L283.65-32.83L294.59-33.92L289.86-8.96L289.86-8.96Q289.66-8.19 289.66-6.78L289.66-6.78L289.66-6.78Q289.66-5.38 290.53-4.48L290.53-4.48L290.53-4.48Q291.39-3.58 292.67-3.46L292.67-3.46L292.67-3.46Q292.03-1.28 289.70 0L289.70 0L289.70 0Q287.36 1.28 284.74 1.28L284.74 1.28L284.74 1.28Q282.11 1.28 280.35 0.29L280.35 0.29L280.35 0.29Q278.59-0.70 278.08-2.37L278.08-2.37L278.08-2.37Q277.06-0.77 274.88 0.26L274.88 0.26L274.88 0.26Q272.70 1.28 269.79 1.28L269.79 1.28L269.79 1.28Q266.88 1.28 264.51 0.51L264.51 0.51L264.51 0.51Q262.14-0.26 260.64-1.92ZM274.14-27.90L274.14-27.90L274.14-27.90Q273.41-26.75 272.77-24.80L272.77-24.80L272.77-24.80Q272.13-22.85 271.07-17.63L271.07-17.63L271.07-17.63Q270.02-12.42 270.02-8.70L270.02-8.70L270.02-8.70Q270.02-4.99 270.59-3.90L270.59-3.90L270.59-3.90Q271.17-2.82 272.19-2.82L272.19-2.82L272.19-2.82Q274.24-2.82 275.74-4.77L275.74-4.77L275.74-4.77Q277.25-6.72 277.82-10.18L277.82-10.18L281.22-28.93L281.22-28.93Q279.87-30.08 278.30-30.08L278.30-30.08L278.30-30.08Q276.74-30.08 275.81-29.57L275.81-29.57L275.81-29.57Q274.88-29.06 274.14-27.90ZM318.08-17.98L318.08-17.98L318.08-17.98Q320.38-22.08 320.38-26.24L320.38-26.24L320.38-26.24Q320.38-28.99 318.40-28.99L318.40-28.99L318.40-28.99Q316.86-28.99 315.26-26.37L315.26-26.37L315.26-26.37Q313.60-23.74 313.09-20.35L313.09-20.35L309.76 0L296.51 1.28L303.04-32.64L313.60-33.92L312.45-27.46L312.45-27.46Q315.58-33.92 322.62-33.92L322.62-33.92L322.62-33.92Q326.34-33.92 328.35-32L328.35-32L328.35-32Q330.37-30.08 330.37-26.14L330.37-26.14L330.37-26.14Q330.37-22.21 327.78-19.71L327.78-19.71L327.78-19.71Q325.18-17.22 320.77-17.22L320.77-17.22L320.77-17.22Q318.85-17.22 318.08-17.98ZM377.47 1.28L377.47 1.28L377.47 1.28Q369.73 1.28 369.73-4.74L369.73-4.74L369.73-4.74Q369.73-7.36 370.85-12.45L370.85-12.45L370.85-12.45Q371.97-17.54 372.35-19.58L372.35-19.58L372.35-19.58Q373.25-24.26 373.25-25.73L373.25-25.73L373.25-25.73Q373.25-28.99 370.82-28.99L370.82-28.99L370.82-28.99Q369.22-28.99 367.68-26.78L367.68-26.78L367.68-26.78Q366.14-24.58 365.44-20.16L365.44-20.16L361.47 0L348.99 1.28L352.45-16.13L352.45-16.13Q353.02-19.01 353.54-22.27L353.54-22.27L353.54-22.27Q354.05-25.54 354.05-26.05L354.05-26.05L354.05-26.05Q354.05-28.99 351.87-28.99L351.87-28.99L351.87-28.99Q350.40-28.99 348.80-26.82L348.80-26.82L348.80-26.82Q347.20-24.64 346.30-20.16L346.30-20.16L342.40 0L329.79 1.28L336.51-32.64L346.94-33.92L345.86-27.46L345.86-27.46Q347.52-30.91 350.59-32.42L350.59-32.42L350.59-32.42Q353.66-33.92 358.46-33.92L358.46-33.92L358.46-33.92Q361.22-33.92 363.01-32.58L363.01-32.58L363.01-32.58Q364.80-31.23 365.38-29.06L365.38-29.06L365.38-29.06Q366.46-31.30 369.25-32.61L369.25-32.61L369.25-32.61Q372.03-33.92 375.46-33.92L375.46-33.92L375.46-33.92Q378.88-33.92 380.58-33.18L380.58-33.18L380.58-33.18Q382.27-32.45 383.30-31.23L383.30-31.23L383.30-31.23Q385.02-28.99 385.02-24.90L385.02-24.90L385.02-24.90Q385.02-20.86 383.30-12.48L383.30-12.48L383.30-12.48Q382.40-8.38 382.40-6.88L382.40-6.88L382.40-6.88Q382.40-5.38 383.26-4.48L383.26-4.48L383.26-4.48Q384.13-3.58 385.41-3.46L385.41-3.46L385.41-3.46Q384.77-1.28 382.56 0L382.56 0L382.56 0Q380.35 1.28 377.47 1.28ZM393.12-1.92L393.12-1.92L393.12-1.92Q391.62-3.58 390.94-6.21L390.94-6.21L390.94-6.21Q390.27-8.83 390.27-13.12L390.27-13.12L390.27-13.12Q390.27-17.41 391.74-21.31L391.74-21.31L391.74-21.31Q393.22-25.22 395.90-28.03L395.90-28.03L395.90-28.03Q401.41-33.92 410.50-33.92L410.50-33.92L410.50-33.92Q413.76-33.92 416.13-32.83L416.13-32.83L427.07-33.92L422.34-8.96L422.34-8.96Q422.14-8.19 422.14-6.78L422.14-6.78L422.14-6.78Q422.14-5.38 423.01-4.48L423.01-4.48L423.01-4.48Q423.87-3.58 425.15-3.46L425.15-3.46L425.15-3.46Q424.51-1.28 422.18 0L422.18 0L422.18 0Q419.84 1.28 417.22 1.28L417.22 1.28L417.22 1.28Q414.59 1.28 412.83 0.29L412.83 0.29L412.83 0.29Q411.07-0.70 410.56-2.37L410.56-2.37L410.56-2.37Q409.54-0.77 407.36 0.26L407.36 0.26L407.36 0.26Q405.18 1.28 402.27 1.28L402.27 1.28L402.27 1.28Q399.36 1.28 396.99 0.51L396.99 0.51L396.99 0.51Q394.62-0.26 393.12-1.92ZM406.62-27.90L406.62-27.90L406.62-27.90Q405.89-26.75 405.25-24.80L405.25-24.80L405.25-24.80Q404.61-22.85 403.55-17.63L403.55-17.63L403.55-17.63Q402.50-12.42 402.50-8.70L402.50-8.70L402.50-8.70Q402.50-4.99 403.07-3.90L403.07-3.90L403.07-3.90Q403.65-2.82 404.67-2.82L404.67-2.82L404.67-2.82Q406.72-2.82 408.22-4.77L408.22-4.77L408.22-4.77Q409.73-6.72 410.30-10.18L410.30-10.18L413.70-28.93L413.70-28.93Q412.35-30.08 410.78-30.08L410.78-30.08L410.78-30.08Q409.22-30.08 408.29-29.57L408.29-29.57L408.29-29.57Q407.36-29.06 406.62-27.90Z" fill="none" stroke="#fff" stroke-width="2.1"></path></g></g></g><style>text {
  font-size: 64px;
  font-family: Arial Black;
  dominant-baseline: central;
  text-anchor: middle;
}</style></svg>